<svg width="64" height="28" viewBox="0 0 64 28" fill="none" xmlns="http://www.w3.org/2000/svg">
<path d="M0.777344 27V1.30078H7.75586V27H0.777344ZM33.3426 13.6055C33.3426 16.5938 32.7859 19.0781 31.6727 21.0586C30.5594 23.0391 28.9891 24.5273 26.9617 25.5234C24.9461 26.5078 22.573 27 19.8426 27H11.5281V1.30078H20.4227C23.1883 1.30078 25.532 1.77539 27.4539 2.72461C29.3758 3.67383 30.8348 5.0625 31.8309 6.89062C32.8387 8.71875 33.3426 10.957 33.3426 13.6055ZM26.1355 13.8516C26.1355 12.293 25.9246 11.0039 25.5027 9.98438C25.0926 8.95312 24.4715 8.18555 23.6395 7.68164C22.8074 7.16602 21.7586 6.9082 20.493 6.9082H18.4715V21.3047H20.0184C22.1277 21.3047 23.6746 20.6953 24.659 19.4766C25.6434 18.2461 26.1355 16.3711 26.1355 13.8516ZM36.1656 27V1.30078H43.1441V27H36.1656ZM63.7211 19.1953C63.7211 20.5898 63.3695 21.9141 62.6664 23.168C61.9633 24.4102 60.8676 25.418 59.3793 26.1914C57.9027 26.9648 55.9926 27.3516 53.6488 27.3516C52.477 27.3516 51.4457 27.2988 50.5551 27.1934C49.6762 27.0879 48.8559 26.918 48.0941 26.6836C47.3324 26.4375 46.5414 26.1211 45.7211 25.7344V19.5469C47.1156 20.25 48.5219 20.7891 49.9398 21.1641C51.3578 21.5273 52.641 21.709 53.7895 21.709C54.4809 21.709 55.0434 21.627 55.477 21.4629C55.9223 21.2988 56.2504 21.0762 56.4613 20.7949C56.6723 20.502 56.7777 20.168 56.7777 19.793C56.7777 19.3477 56.6195 18.9727 56.3031 18.668C55.9984 18.3516 55.5062 18.0234 54.8266 17.6836C54.1469 17.3438 53.2504 16.9219 52.1371 16.418C51.1879 15.9727 50.3266 15.5156 49.5531 15.0469C48.7914 14.5781 48.1352 14.0449 47.5844 13.4473C47.0453 12.8379 46.6293 12.1289 46.3363 11.3203C46.0434 10.5117 45.8969 9.55664 45.8969 8.45508C45.8969 6.80273 46.3012 5.41992 47.1098 4.30664C47.9301 3.18164 49.0668 2.33789 50.5199 1.77539C51.9848 1.21289 53.6723 0.931641 55.5824 0.931641C57.2582 0.931641 58.7641 1.11914 60.1 1.49414C61.4477 1.86914 62.6547 2.29688 63.7211 2.77734L61.5941 8.13867C60.4926 7.63477 59.4086 7.23633 58.3422 6.94336C57.2758 6.63867 56.2855 6.48633 55.3715 6.48633C54.7738 6.48633 54.2816 6.5625 53.8949 6.71484C53.5199 6.85547 53.2387 7.04883 53.0512 7.29492C52.8754 7.54102 52.7875 7.82227 52.7875 8.13867C52.7875 8.53711 52.9398 8.89453 53.2445 9.21094C53.5609 9.52734 54.0824 9.87305 54.809 10.248C55.5473 10.6113 56.5492 11.0859 57.8148 11.6719C59.0687 12.2344 60.1352 12.8438 61.0141 13.5C61.893 14.1445 62.5609 14.9238 63.018 15.8379C63.4867 16.7402 63.7211 17.8594 63.7211 19.1953Z" fill="#FF812B"/>
</svg>
