<svg width="332" height="139" viewBox="0 0 332 139" fill="none" xmlns="http://www.w3.org/2000/svg">
<path d="M0 137.15V1.94212H36.8085V137.15H0Z" fill="white"/>
<path d="M171.767 66.6793C171.767 89.2448 165.524 106.631 153.038 118.839C140.614 131.047 123.122 137.15 100.561 137.15H56.7055V1.94212H103.62C125.378 1.94212 142.159 7.49102 153.965 18.5888C165.833 29.6866 171.767 45.7168 171.767 66.6793ZM133.753 67.9741C133.753 55.5815 131.281 46.395 126.336 40.4145C121.453 34.434 114.004 31.4438 103.991 31.4438H93.3287V107.186H101.488C112.614 107.186 120.773 103.98 125.965 97.5682C131.157 91.0945 133.753 81.2298 133.753 67.9741Z" fill="white"/>
<path d="M186.657 137.15V1.94212H223.466V137.15H186.657Z" fill="white"/>
<path d="M332 96.0885C332 104.473 329.868 111.934 325.603 118.469C321.338 124.943 315.187 129.998 307.152 133.636C299.116 137.212 289.69 139 278.873 139C269.849 139 262.277 138.383 256.158 137.15C250.038 135.856 243.672 133.636 237.058 130.492V97.9381C244.043 101.514 251.306 104.319 258.847 106.354C266.387 108.327 273.31 109.313 279.615 109.313C285.054 109.313 289.041 108.389 291.576 106.539C294.11 104.628 295.377 102.192 295.377 99.2329C295.377 97.3832 294.852 95.7802 293.801 94.4238C292.812 93.0058 291.174 91.5877 288.887 90.1697C286.662 88.7516 280.666 85.8539 270.9 81.4764C262.061 77.4688 255.416 73.5846 250.966 69.8237C246.577 66.0628 243.301 61.747 241.138 56.8762C239.036 52.0055 237.985 46.2409 237.985 39.5822C237.985 27.128 242.528 17.4174 251.615 10.4504C260.701 3.48348 273.187 0 289.072 0C303.103 0 317.413 3.23686 332 9.71058L320.781 37.9175C308.11 32.122 297.169 29.2242 287.96 29.2242C283.2 29.2242 279.739 30.0566 277.575 31.7212C275.412 33.3859 274.33 35.4513 274.33 37.9175C274.33 40.5686 275.69 42.9423 278.41 45.0386C281.191 47.1348 288.67 50.9574 300.847 56.5063C312.53 61.747 320.627 67.3883 325.139 73.4305C329.713 79.411 332 86.9636 332 96.0885Z" fill="white"/>
</svg>
