<svg xmlns="http://www.w3.org/2000/svg" width="18" height="18" viewBox="0 0 18 18">
    <path fill-rule="evenodd" clip-rule="evenodd"
        d="M13.8536 4.14645C14.0488 4.34171 14.0488 4.65829 13.8536 4.85355L4.85355 13.8536C4.65829 14.0488 4.34171 14.0488 4.14645 13.8536C3.95118 13.6583 3.95118 13.3417 4.14645 13.1464L13.1464 4.14645C13.3417 3.95118 13.6583 3.95118 13.8536 4.14645Z" />
    <path fill-rule="evenodd" clip-rule="evenodd"
        d="M4.14645 4.14645C3.95118 4.34171 3.95118 4.65829 4.14645 4.85355L13.1464 13.8536C13.3417 14.0488 13.6583 14.0488 13.8536 13.8536C14.0488 13.6583 14.0488 13.3417 13.8536 13.1464L4.85355 4.14645C4.65829 3.95118 4.34171 3.95118 4.14645 4.14645Z" />
</svg>