<svg xmlns="http://www.w3.org/2000/svg" width="18" height="18" viewBox="0 0 18 18">
    <path fill-rule="evenodd" clip-rule="evenodd"
        d="M9 11C10.1046 11 11 10.1046 11 9C11 7.89543 10.1046 7 9 7C7.89543 7 7 7.89543 7 9C7 10.1046 7.89543 11 9 11ZM9 12C10.6569 12 12 10.6569 12 9C12 7.34315 10.6569 6 9 6C7.34315 6 6 7.34315 6 9C6 10.6569 7.34315 12 9 12Z" />
    <path fill-rule="evenodd" clip-rule="evenodd"
        d="M5.7921 6.1356C4.82267 6.79667 4.01245 7.62261 3.45524 8.26909C3.02628 8.76677 2.98535 8.8496 2.98535 9C2.98535 9.1504 3.02628 9.23323 3.45524 9.73091C4.01245 10.3774 4.82267 11.2033 5.7921 11.8644C6.76423 12.5273 7.86035 13 9.00007 13C10.1398 13 11.2359 12.5273 12.208 11.8644C13.1775 11.2033 13.9877 10.3774 14.5449 9.73091C14.9739 9.23323 15.0148 9.1504 15.0148 9C15.0148 8.8496 14.9739 8.76677 14.5449 8.26909C13.9877 7.62261 13.1775 6.79667 12.208 6.1356C11.2359 5.4727 10.1398 5 9.00007 5C7.86035 5 6.76423 5.4727 5.7921 6.1356ZM5.22871 5.30941C6.29319 4.58353 7.58559 4 9.00007 4C10.4146 4 11.7069 4.58353 12.7714 5.30941C13.8386 6.03712 14.7131 6.93251 15.3024 7.61622C15.3216 7.63851 15.3408 7.66068 15.3599 7.68276C15.6984 8.07369 16.0148 8.43912 16.0148 9C16.0148 9.56088 15.6984 9.92631 15.3599 10.3172C15.3408 10.3393 15.3216 10.3615 15.3024 10.3838C14.7131 11.0675 13.8386 11.9629 12.7714 12.6906C11.7069 13.4165 10.4146 14 9.00007 14C7.58559 14 6.29319 13.4165 5.22871 12.6906C4.16155 11.9629 3.28707 11.0675 2.69777 10.3838C2.67856 10.3615 2.65936 10.3393 2.64024 10.3172C2.30176 9.92631 1.98535 9.56088 1.98535 9C1.98535 8.43912 2.30176 8.07369 2.64024 7.68276C2.65936 7.66068 2.67856 7.63851 2.69777 7.61622C3.28707 6.93251 4.16155 6.03712 5.22871 5.30941Z" />
</svg>