<svg xmlns="http://www.w3.org/2000/svg" width="24" height="24" viewBox="0 0 24 24">
    <path fill-rule="evenodd" clip-rule="evenodd"
        d="M10.1466 2.68254C11.9895 2.31599 13.8996 2.50412 15.6355 3.22315C17.3714 3.94218 18.8551 5.15982 19.899 6.72209C20.9428 8.28436 21.5 10.1211 21.5 12C21.5 13.8789 20.9428 15.7157 19.899 17.2779C18.8551 18.8402 17.3714 20.0578 15.6355 20.7769C13.8996 21.4959 11.9895 21.684 10.1466 21.3175C8.30382 20.9509 6.61108 20.0461 5.28249 18.7175L4.57538 19.4246C6.04383 20.8931 7.91475 21.8931 9.95155 22.2983C11.9884 22.7034 14.0996 22.4955 16.0182 21.7007C17.9368 20.906 19.5767 19.5602 20.7304 17.8335C21.8842 16.1068 22.5 14.0767 22.5 12C22.5 9.9233 21.8842 7.89323 20.7304 6.16652C19.5767 4.4398 17.9368 3.09399 16.0182 2.29927C14.0996 1.50455 11.9884 1.29661 9.95155 1.70176C7.91475 2.1069 6.04383 3.10693 4.57538 4.57538L5.28249 5.28249C6.61109 3.95389 8.30382 3.0491 10.1466 2.68254Z" />
    <path fill-rule="evenodd" clip-rule="evenodd"
        d="M11.3903 6.68774L10.6094 7.31244L13.9595 11.5001H2.99982C2.72368 11.5001 2.49982 11.7239 2.49982 12.0001C2.49982 12.2762 2.72368 12.5001 2.99982 12.5001H13.9595L10.6094 16.6877L11.3903 17.3124L15.6401 12.0001L11.3903 6.68774Z" />
</svg>