<svg xmlns="http://www.w3.org/2000/svg" width="18" height="18" viewBox="0 0 18 18">
    <path fill-rule="evenodd" clip-rule="evenodd"
        d="M8.80304 2.54043C8.92881 2.48652 9.07119 2.48652 9.19696 2.54043L14.447 4.79043C14.6308 4.86922 14.75 5.04999 14.75 5.25C14.75 5.45001 14.6308 5.63078 14.447 5.70957L9.19696 7.95957C9.07119 8.01348 8.92881 8.01348 8.80304 7.95957L3.55304 5.70957C3.3692 5.63078 3.25 5.45001 3.25 5.25C3.25 5.04999 3.3692 4.86922 3.55304 4.79043L8.80304 2.54043ZM5.0193 5.25L9 6.95602L12.9807 5.25L9 3.54398L5.0193 5.25Z" />
    <path fill-rule="evenodd" clip-rule="evenodd"
        d="M4.95176 7.94092L3.55304 8.54037C3.3692 8.61916 3.25 8.79993 3.25 8.99994C3.25 9.19996 3.3692 9.38073 3.55304 9.45951L8.80304 11.7095C8.92881 11.7634 9.07119 11.7634 9.19696 11.7095L14.447 9.45951C14.6308 9.38073 14.75 9.19996 14.75 8.99994C14.75 8.79993 14.6308 8.61916 14.447 8.54037L13.0482 7.94092L11.7789 8.4849L12.9807 8.99994L9 10.706L5.0193 8.99994L6.22106 8.4849L4.95176 7.94092Z" />
    <path fill-rule="evenodd" clip-rule="evenodd"
        d="M4.95176 11.6909L3.55304 12.2904C3.3692 12.3692 3.25 12.5499 3.25 12.7499C3.25 12.95 3.3692 13.1307 3.55304 13.2095L8.80304 15.4595C8.92881 15.5134 9.07119 15.5134 9.19696 15.4595L14.447 13.2095C14.6308 13.1307 14.75 12.95 14.75 12.7499C14.75 12.5499 14.6308 12.3692 14.447 12.2904L13.0482 11.6909L11.7789 12.2349L12.9807 12.7499L9 14.456L5.0193 12.7499L6.22106 12.2349L4.95176 11.6909Z" />
</svg>