<svg xmlns="http://www.w3.org/2000/svg" width="18" height="18" viewBox="0 0 18 18">
    <path fill-rule="evenodd" clip-rule="evenodd"
        d="M9 2.75C5.54822 2.75 2.75 5.54822 2.75 9C2.75 12.4518 5.54822 15.25 9 15.25C12.4518 15.25 15.25 12.4518 15.25 9C15.25 5.54822 12.4518 2.75 9 2.75ZM1.75 9C1.75 4.99594 4.99594 1.75 9 1.75C13.0041 1.75 16.25 4.99594 16.25 9C16.25 13.0041 13.0041 16.25 9 16.25C4.99594 16.25 1.75 13.0041 1.75 9Z" />
    <path fill-rule="evenodd" clip-rule="evenodd"
        d="M12.3841 7.07012L8.28358 11.9907L5.64643 9.35358L6.35354 8.64647L8.21638 10.5093L11.6159 6.42993L12.3841 7.07012Z" />
</svg>