<svg xmlns="http://www.w3.org/2000/svg" width="18" height="18" viewBox="0 0 18 18">
    <path fill-rule="evenodd" clip-rule="evenodd"
        d="M16.1036 4.14645C16.2988 4.34171 16.2988 4.65829 16.1036 4.85355L12.3107 8.64645C11.7249 9.23223 10.7751 9.23223 10.1893 8.64645L9.35355 7.81066C9.15829 7.6154 8.84171 7.6154 8.64645 7.81066L5.60356 10.8536C5.40829 11.0488 5.09171 11.0488 4.89645 10.8536C4.70119 10.6583 4.70119 10.3417 4.89645 10.1464L7.93934 7.10355C8.52513 6.51777 9.47487 6.51777 10.0607 7.10355L10.8964 7.93934C11.0917 8.1346 11.4083 8.1346 11.6036 7.93934L15.3964 4.14645C15.5917 3.95118 15.9083 3.95118 16.1036 4.14645Z" />
    <path fill-rule="evenodd" clip-rule="evenodd"
        d="M2.25 1.75C2.52614 1.75 2.75 1.97386 2.75 2.25V12.55C2.75 13.1183 2.75039 13.5145 2.77559 13.8229C2.80031 14.1255 2.8464 14.2993 2.91349 14.431C3.0573 14.7132 3.28677 14.9427 3.56901 15.0865C3.70069 15.1536 3.87454 15.1997 4.17712 15.2244C4.48554 15.2496 4.8817 15.25 5.45 15.25H15.75C16.0261 15.25 16.25 15.4739 16.25 15.75C16.25 16.0261 16.0261 16.25 15.75 16.25H5.42858C4.8867 16.25 4.44962 16.25 4.09569 16.2211C3.73126 16.1913 3.41117 16.1284 3.11502 15.9775C2.64462 15.7378 2.26217 15.3554 2.02248 14.885C1.87159 14.5888 1.80868 14.2687 1.77891 13.9043C1.74999 13.5504 1.75 13.1133 1.75 12.5714L1.75 2.25C1.75 1.97386 1.97386 1.75 2.25 1.75Z" />
</svg>